<svg width="568" height="291" viewBox="0 0 568 291" fill="none" xmlns="http://www.w3.org/2000/svg">
<path fill-rule="evenodd" clip-rule="evenodd" d="M0 2.83449L22.6311 21.4258C46.3398 40.0171 92.6796 74.8759 139.019 86.4954C185.359 98.115 231.699 86.4954 278.039 56.2846C323.301 26.0737 369.641 -20.4047 415.981 9.80624C462.32 40.0171 508.66 146.917 532.369 200.367L555 256.141L568 291H532.369C508.66 291 462.32 291 415.981 291C369.641 291 323.301 291 278.039 291C231.699 291 185.359 291 139.019 291C92.6796 291 46.3398 291 22.6311 291H0V2.83449Z" fill="#426B1F"/>
</svg>
