<svg id="visual" viewBox="0 0 900 600" width="900" height="600" xmlns="http://www.w3.org/2000/svg" xmlns:xlink="http://www.w3.org/1999/xlink" version="1.1"><rect x="0" y="0" width="900" height="600" fill="#ffffff"></rect><path d="M770 600L749.2 580C728.3 560 686.7 520 643.2 480C599.7 440 554.3 400 541.7 360C529 320 549 280 589.8 240C630.7 200 692.3 160 713.3 120C734.3 80 714.7 40 704.8 20L695 0L900 0L900 20C900 40 900 80 900 120C900 160 900 200 900 240C900 280 900 320 900 360C900 400 900 440 900 480C900 520 900 560 900 580L900 600Z" fill="#426B1F" stroke-linecap="round" stroke-linejoin="miter"></path></svg>